<?xml version="1.0" encoding="UTF-8"?><svg id="Layer_1" xmlns="http://www.w3.org/2000/svg" viewBox="0 0 1080 1080"><defs><style>.cls-1{fill:none;}.cls-2{fill:#013d69;}</style></defs><rect class="cls-1" width="1080" height="1080"/><g><g><path class="cls-2" d="M597.17,482.41h-25.25l-4.18,12.08h-13.35l22.8-63.49h14.81l22.8,63.49h-13.44l-4.18-12.08Zm-3.45-10.17l-9.18-26.52-9.17,26.52h18.35Z"/><path class="cls-2" d="M631.5,493.08c-3.27-1.48-5.86-3.5-7.76-6.04-1.91-2.54-2.95-5.36-3.14-8.45h12.81c.24,1.94,1.2,3.54,2.86,4.81,1.66,1.27,3.74,1.91,6.22,1.91s4.31-.48,5.68-1.45c1.36-.97,2.04-2.21,2.04-3.72,0-1.64-.83-2.86-2.5-3.68-1.66-.82-4.31-1.71-7.95-2.68-3.76-.91-6.83-1.85-9.22-2.82-2.39-.97-4.45-2.45-6.18-4.45-1.72-2-2.59-4.69-2.59-8.08,0-2.78,.8-5.33,2.41-7.63,1.6-2.3,3.9-4.12,6.9-5.45,3-1.33,6.52-2,10.58-2,5.99,0,10.78,1.5,14.35,4.5,3.57,3,5.54,7.04,5.9,12.13h-12.17c-.18-2-1.02-3.59-2.5-4.77-1.48-1.18-3.47-1.77-5.95-1.77-2.3,0-4.08,.42-5.31,1.27-1.24,.85-1.86,2.03-1.86,3.54,0,1.7,.85,2.98,2.54,3.86,1.69,.88,4.33,1.77,7.9,2.68,3.63,.91,6.63,1.85,8.99,2.82,2.36,.97,4.4,2.47,6.13,4.5,1.73,2.03,2.62,4.71,2.68,8.04,0,2.91-.8,5.51-2.41,7.81-1.6,2.3-3.91,4.1-6.9,5.4-3,1.3-6.49,1.95-10.49,1.95s-7.81-.74-11.08-2.22Z"/><path class="cls-2" d="M687.63,454.61v24.34c0,1.7,.41,2.92,1.23,3.68,.82,.76,2.19,1.14,4.13,1.14h5.9v10.72h-7.99c-10.72,0-16.08-5.21-16.08-15.62v-24.25h-5.99v-10.44h5.99v-12.44h12.8v12.44h11.26v10.44h-11.26Z"/><path class="cls-2" d="M727.18,445.71c2.64-1.51,5.65-2.27,9.04-2.27v13.35h-3.36c-3.99,0-7.01,.94-9.04,2.82-2.03,1.88-3.05,5.15-3.05,9.81v25.07h-12.71v-50.32h12.71v7.81c1.64-2.66,3.77-4.75,6.4-6.27Z"/><path class="cls-2" d="M744.53,455.61c2.03-3.94,4.78-6.96,8.27-9.08,3.48-2.12,7.37-3.18,11.67-3.18,3.75,0,7.04,.76,9.85,2.27,2.82,1.51,5.07,3.42,6.77,5.72v-7.18h12.81v50.32h-12.81v-7.36c-1.63,2.36-3.89,4.31-6.77,5.86-2.87,1.54-6.19,2.32-9.95,2.32-4.24,0-8.1-1.09-11.58-3.27-3.48-2.18-6.24-5.25-8.27-9.22-2.03-3.97-3.04-8.52-3.04-13.67s1.01-9.6,3.04-13.53Zm34.74,5.77c-1.21-2.21-2.85-3.91-4.9-5.09-2.06-1.18-4.27-1.77-6.63-1.77s-4.54,.58-6.54,1.73c-2,1.15-3.62,2.83-4.86,5.04-1.24,2.21-1.86,4.83-1.86,7.86s.62,5.68,1.86,7.95c1.24,2.27,2.87,4.01,4.9,5.22,2.03,1.21,4.19,1.82,6.49,1.82s4.57-.59,6.63-1.77c2.06-1.18,3.69-2.88,4.9-5.09,1.21-2.21,1.82-4.86,1.82-7.95s-.61-5.74-1.82-7.95Z"/><path class="cls-2" d="M601.43,521.01v10.26h-16.9v53.13h-12.71v-53.13h-16.9v-10.26h46.5Z"/><path class="cls-2" d="M611.56,525.96c-1.48-1.42-2.23-3.19-2.23-5.31s.74-3.89,2.23-5.31c1.48-1.42,3.35-2.13,5.59-2.13s4.1,.71,5.58,2.13c1.48,1.42,2.23,3.19,2.23,5.31s-.74,3.89-2.23,5.31c-1.48,1.42-3.35,2.13-5.58,2.13s-4.1-.71-5.59-2.13Zm11.85,8.13v50.32h-12.71v-50.32h12.71Z"/><path class="cls-2" d="M650.75,544.53v24.34c0,1.7,.41,2.92,1.23,3.68,.82,.76,2.19,1.14,4.13,1.14h5.9v10.72h-7.99c-10.72,0-16.08-5.21-16.08-15.62v-24.25h-5.99v-10.44h5.99v-12.44h12.8v12.44h11.26v10.44h-11.26Z"/><path class="cls-2" d="M670.96,545.53c2.03-3.94,4.78-6.96,8.27-9.08,3.48-2.12,7.37-3.18,11.67-3.18,3.75,0,7.04,.76,9.85,2.27,2.82,1.51,5.07,3.42,6.77,5.72v-7.18h12.81v50.32h-12.81v-7.36c-1.63,2.36-3.89,4.31-6.77,5.86-2.87,1.54-6.19,2.32-9.95,2.32-4.24,0-8.1-1.09-11.58-3.27-3.48-2.18-6.24-5.25-8.27-9.22-2.03-3.97-3.04-8.52-3.04-13.67s1.01-9.6,3.04-13.53Zm34.74,5.77c-1.21-2.21-2.85-3.91-4.9-5.09-2.06-1.18-4.27-1.77-6.63-1.77s-4.54,.58-6.54,1.73c-2,1.15-3.62,2.83-4.86,5.04-1.24,2.21-1.86,4.83-1.86,7.86s.62,5.68,1.86,7.95c1.24,2.27,2.87,4.01,4.9,5.22,2.03,1.21,4.19,1.82,6.49,1.82s4.57-.59,6.63-1.77c2.06-1.18,3.69-2.88,4.9-5.09,1.21-2.21,1.82-4.86,1.82-7.95s-.61-5.74-1.82-7.95Z"/><path class="cls-2" d="M775.18,539.04c3.69,3.78,5.54,9.07,5.54,15.85v29.52h-12.72v-27.79c0-4-1-7.07-3-9.22-2-2.15-4.72-3.22-8.18-3.22s-6.28,1.08-8.31,3.22c-2.03,2.15-3.05,5.22-3.05,9.22v27.79h-12.71v-50.32h12.71v6.27c1.69-2.18,3.86-3.89,6.5-5.13,2.63-1.24,5.53-1.86,8.67-1.86,5.99,0,10.84,1.89,14.53,5.68Z"/><path class="cls-2" d="M597.17,662.24h-25.25l-4.18,12.08h-13.35l22.8-63.49h14.81l22.8,63.49h-13.44l-4.18-12.08Zm-3.45-10.17l-9.18-26.52-9.17,26.52h18.35Z"/><path class="cls-2" d="M642.44,625.55c2.64-1.51,5.65-2.27,9.04-2.27v13.35h-3.36c-3.99,0-7.01,.94-9.04,2.82-2.03,1.88-3.05,5.15-3.05,9.81v25.07h-12.71v-50.32h12.71v7.81c1.64-2.66,3.77-4.75,6.4-6.27Z"/><path class="cls-2" d="M659.79,635.45c2.03-3.94,4.78-6.96,8.27-9.08,3.48-2.12,7.37-3.18,11.67-3.18,3.75,0,7.04,.76,9.85,2.27,2.82,1.51,5.07,3.42,6.77,5.72v-7.18h12.81v50.32h-12.81v-7.36c-1.63,2.36-3.89,4.31-6.77,5.86-2.87,1.54-6.19,2.32-9.95,2.32-4.24,0-8.1-1.09-11.58-3.27-3.48-2.18-6.24-5.25-8.27-9.22-2.03-3.97-3.04-8.52-3.04-13.67s1.01-9.6,3.04-13.53Zm34.74,5.77c-1.21-2.21-2.85-3.91-4.9-5.09-2.06-1.18-4.27-1.77-6.63-1.77s-4.54,.58-6.54,1.73c-2,1.15-3.62,2.83-4.86,5.04-1.24,2.21-1.86,4.83-1.86,7.86s.62,5.68,1.86,7.95c1.24,2.27,2.87,4.01,4.9,5.22,2.03,1.21,4.19,1.82,6.49,1.82s4.57-.59,6.63-1.77c2.06-1.18,3.69-2.88,4.9-5.09,1.21-2.21,1.82-4.86,1.82-7.95s-.61-5.74-1.82-7.95Z"/><path class="cls-2" d="M741.08,625.46c2.88-1.51,6.16-2.27,9.86-2.27,4.3,0,8.19,1.06,11.67,3.18,3.48,2.12,6.24,5.13,8.27,9.04,2.03,3.91,3.04,8.43,3.04,13.58s-1.02,9.7-3.04,13.67c-2.03,3.97-4.78,7.04-8.27,9.22-3.48,2.18-7.37,3.27-11.67,3.27-3.76,0-7.04-.74-9.86-2.22-2.82-1.48-5.07-3.41-6.77-5.77v7.17h-12.71v-67.21h12.71v24.25c1.64-2.42,3.89-4.39,6.77-5.9Zm17.98,15.67c-1.24-2.21-2.88-3.89-4.9-5.04-2.03-1.15-4.22-1.73-6.58-1.73s-4.47,.59-6.5,1.77c-2.03,1.18-3.66,2.89-4.9,5.13-1.24,2.24-1.86,4.87-1.86,7.9s.62,5.66,1.86,7.9c1.24,2.24,2.88,3.95,4.9,5.13,2.03,1.18,4.19,1.77,6.5,1.77s4.55-.6,6.58-1.82c2.03-1.21,3.66-2.94,4.9-5.18,1.24-2.24,1.86-4.91,1.86-7.99s-.62-5.65-1.86-7.86Z"/><path class="cls-2" d="M784.04,615.87c-1.48-1.42-2.23-3.19-2.23-5.31s.74-3.89,2.23-5.31c1.48-1.42,3.35-2.13,5.59-2.13s4.1,.71,5.58,2.13c1.48,1.42,2.23,3.19,2.23,5.31s-.74,3.89-2.23,5.31c-1.48,1.42-3.35,2.13-5.58,2.13s-4.1-.71-5.59-2.13Zm11.85,8.13v50.32h-12.71v-50.32h12.71Z"/><path class="cls-2" d="M808.2,635.45c2.03-3.94,4.78-6.96,8.27-9.08,3.48-2.12,7.37-3.18,11.67-3.18,3.75,0,7.04,.76,9.85,2.27,2.82,1.51,5.07,3.42,6.77,5.72v-7.18h12.81v50.32h-12.81v-7.36c-1.63,2.36-3.89,4.31-6.77,5.86-2.87,1.54-6.19,2.32-9.95,2.32-4.24,0-8.1-1.09-11.58-3.27-3.48-2.18-6.24-5.25-8.27-9.22-2.03-3.97-3.04-8.52-3.04-13.67s1.01-9.6,3.04-13.53Zm34.74,5.77c-1.21-2.21-2.85-3.91-4.9-5.09-2.06-1.18-4.27-1.77-6.63-1.77s-4.54,.58-6.54,1.73c-2,1.15-3.62,2.83-4.86,5.04-1.24,2.21-1.86,4.83-1.86,7.86s.62,5.68,1.86,7.95c1.24,2.27,2.87,4.01,4.9,5.22,2.03,1.21,4.19,1.82,6.49,1.82s4.57-.59,6.63-1.77c2.06-1.18,3.69-2.88,4.9-5.09,1.21-2.21,1.82-4.86,1.82-7.95s-.61-5.74-1.82-7.95Z"/></g><g><path class="cls-2" d="M521.22,426.4v57.19h-6.41c-46.36,0-90.98-7.22-133.05-21.53v-57.19c11.89,4.11,24.02,7.59,36.34,10.46,31.12,7.34,63.48,11.08,96.71,11.08h6.41Z"/><path class="cls-2" d="M521.22,522.17v57.19h-6.41c-46.36,0-90.98-7.22-133.05-21.53v-57.13c11.89,4.04,24.02,7.53,36.34,10.39,31.12,7.34,63.48,11.08,96.71,11.08h6.41Z"/><path class="cls-2" d="M521.22,617.95v57.19h-6.41c-46.36,0-90.98-7.22-133.05-21.53v-57.19c11.89,4.11,24.02,7.59,36.34,10.45,31.12,7.34,63.48,11.08,96.71,11.08h6.41Z"/></g><path class="cls-2" d="M361.88,404.85v248.77c-42.07,14.29-86.68,21.54-133.04,21.54h-6.4v-57.21h6.4c44.43-.04,80.78-36.42,80.78-80.85v-3.27c0-28.07-22.99-50.28-51.05-50.23-.18,0-.35,0-.53,0h-4.98v-57.21h4.98c17.51,0,34.76-1.69,51.58-5.06,8.05-1.65,16.02-3.64,23.91-6.02,9.62-2.83,19.08-6.32,28.36-10.46Z"/></g></svg>